<svg width="19" height="19" viewBox="0 0 19 19" fill="none" xmlns="http://www.w3.org/2000/svg">
<path fill-rule="evenodd" clip-rule="evenodd" d="M0 1.36711C0 0.612077 0.613859 0 1.37109 0H7.19824C7.95547 0 8.56933 0.612077 8.56933 1.36711V7.17734C8.56933 7.93237 7.95547 8.54445 7.19824 8.54445H1.37109C0.613859 8.54445 0 7.93237 0 7.17734V1.36711ZM1.71387 6.83556V1.70889H6.85546V6.83556H1.71387Z" fill="#86878B"/>
<path fill-rule="evenodd" clip-rule="evenodd" d="M0 11.6205C0 10.8654 0.613859 10.2533 1.37109 10.2533H7.19824C7.95547 10.2533 8.56933 10.8654 8.56933 11.6205V17.4307C8.56933 18.1857 7.95547 18.7978 7.19824 18.7978H1.37109C0.613859 18.7978 0 18.1857 0 17.4307V11.6205ZM1.71387 17.0889V11.9622H6.85546V17.0889H1.71387Z" fill="#86878B"/>
<path fill-rule="evenodd" clip-rule="evenodd" d="M11.6543 0C10.8971 0 10.2832 0.612077 10.2832 1.36711V7.17734C10.2832 7.93237 10.8971 8.54445 11.6543 8.54445H17.4814C18.2387 8.54445 18.8525 7.93237 18.8525 7.17734V1.36711C18.8525 0.612077 18.2387 0 17.4814 0H11.6543ZM11.9971 1.70889V6.83556H17.1387V1.70889H11.9971Z" fill="#86878B"/>
<path d="M11.428 10.3081C11.9013 10.3081 12.2849 10.6906 12.2849 11.1625V17.9981C12.2849 18.47 11.9013 18.8525 11.428 18.8525C10.9547 18.8525 10.5711 18.47 10.5711 17.9981V11.1625C10.5711 10.6906 10.9547 10.3081 11.428 10.3081Z" fill="#86878B"/>
<path d="M17.5979 10.3081C18.0712 10.3081 18.4549 10.6906 18.4549 11.1625V17.9981C18.4549 18.47 18.0712 18.8525 17.5979 18.8525C17.1247 18.8525 16.741 18.47 16.741 17.9981V11.1625C16.741 10.6906 17.1247 10.3081 17.5979 10.3081Z" fill="#86878B"/>
<path d="M14.513 10.3081C14.9862 10.3081 15.3699 10.6906 15.3699 11.1625V17.9981C15.3699 18.47 14.9862 18.8525 14.513 18.8525C14.0397 18.8525 13.656 18.47 13.656 17.9981V11.1625C13.656 10.6906 14.0397 10.3081 14.513 10.3081Z" fill="#86878B"/>
</svg>
