<svg width="20" height="20" viewBox="0 0 20 20" fill="none" xmlns="http://www.w3.org/2000/svg">
<path fill-rule="evenodd" clip-rule="evenodd" d="M0 2.43258C0 1.08911 1.08911 0 2.43258 0H14.8996C16.2431 0 17.3322 1.08911 17.3322 2.43258V3.64888C18.6756 3.64888 19.7647 4.73798 19.7647 6.08146V17.0281C19.7647 18.3716 18.6756 19.4607 17.3322 19.4607H2.43258C1.08911 19.4607 0 18.3716 0 17.0281V2.43258ZM15.5077 3.64888V2.43258C15.5077 2.09671 15.2354 1.82444 14.8996 1.82444H2.43258C2.09671 1.82444 1.82444 2.09671 1.82444 2.43258V3.64888H15.5077ZM1.82444 5.47331V17.0281C1.82444 17.364 2.09671 17.6362 2.43258 17.6362H17.3322C17.668 17.6362 17.9403 17.364 17.9403 17.0281V14.5955H14.8996C13.2202 14.5955 11.8588 13.2341 11.8588 11.5548C11.8588 9.87543 13.2202 8.51404 14.8996 8.51404H17.9403V6.08146C17.9403 5.74559 17.668 5.47331 17.3322 5.47331H1.82444ZM17.9403 10.3385H14.8996C14.2278 10.3385 13.6833 10.883 13.6833 11.5548C13.6833 12.2265 14.2278 12.7711 14.8996 12.7711H17.9403V10.3385Z" fill="#86878B"/>
</svg>
