<svg width="18" height="22" viewBox="0 0 18 22" fill="none" xmlns="http://www.w3.org/2000/svg">
<path d="M9.73034 14.6555C10.2757 14.34 10.6426 13.7504 10.6426 13.0751C10.6426 12.0675 9.82573 11.2507 8.81812 11.2507C7.81051 11.2507 6.99368 12.0675 6.99368 13.0751C6.99368 13.7504 7.36057 14.34 7.9059 14.6555V17.3322C7.9059 17.836 8.31431 18.2444 8.81812 18.2444C9.32192 18.2444 9.73034 17.836 9.73034 17.3322V14.6555Z" fill="#86878B"/>
<path fill-rule="evenodd" clip-rule="evenodd" d="M13.9874 7.29775V5.16924C13.9874 2.31435 11.673 0 8.81812 0C5.96322 0 3.64888 2.31435 3.64888 5.16924V7.29775H3.3448C1.49752 7.29775 0 8.79527 0 10.6426V17.9403C0 19.7876 1.49752 21.2851 3.3448 21.2851H14.2914C16.1387 21.2851 17.6362 19.7876 17.6362 17.9403V10.6426C17.6362 8.79527 16.1387 7.29775 14.2914 7.29775H13.9874ZM8.81812 1.82444C6.97083 1.82444 5.47331 3.32196 5.47331 5.16924V7.29775H12.1629V5.16924C12.1629 3.32196 10.6654 1.82444 8.81812 1.82444ZM3.3448 9.12219C2.50513 9.12219 1.82444 9.80288 1.82444 10.6426V17.9403C1.82444 18.78 2.50513 19.4607 3.3448 19.4607H14.2914C15.1311 19.4607 15.8118 18.78 15.8118 17.9403V10.6426C15.8118 9.80288 15.1311 9.12219 14.2914 9.12219H3.3448Z" fill="#86878B"/>
</svg>
