<svg width="18" height="20" viewBox="0 0 18 20" fill="none" xmlns="http://www.w3.org/2000/svg">
<path fill-rule="evenodd" clip-rule="evenodd" d="M13.889 5.41024C13.889 8.39824 11.4825 10.8205 8.51404 10.8205C5.54555 10.8205 3.13911 8.39824 3.13911 5.41024C3.13911 2.42225 5.54555 0 8.51404 0C11.4825 0 13.889 2.42225 13.889 5.41024ZM12.0194 5.41024C12.0194 7.35893 10.45 8.93866 8.51404 8.93866C6.57807 8.93866 5.00865 7.35893 5.00865 5.41024C5.00865 3.46155 6.57807 1.88182 8.51404 1.88182C10.45 1.88182 12.0194 3.46155 12.0194 5.41024Z" fill="#86878B"/>
<path d="M0.0191777 18.5574C-0.0508616 18.7884 0.0771104 19.03 0.302562 19.1126L1.17487 19.4321C1.43966 19.5291 1.72779 19.3693 1.81043 19.0981C2.68998 16.212 5.35855 14.1137 8.51403 14.1137C11.6695 14.1137 14.3381 16.212 15.2177 19.0981C15.3003 19.3693 15.5884 19.5291 15.8532 19.4321L16.7255 19.1126C16.951 19.03 17.079 18.7884 17.0089 18.5574C15.8985 14.8956 12.5153 12.2319 8.51403 12.2319C4.51275 12.2319 1.12956 14.8956 0.0191777 18.5574Z" fill="#86878B"/>
</svg>
