<svg width="22" height="19" viewBox="0 0 22 19" fill="none" xmlns="http://www.w3.org/2000/svg">
<path fill-rule="evenodd" clip-rule="evenodd" d="M11.0991 5.10152C5.14855 5.9516 0.970812 11.7655 0.0446811 16.9237C0.0355017 16.9748 0.0266416 17.0259 0.0181025 17.0769C-0.166303 18.178 1.09912 18.6889 1.95046 17.9666C4.64287 15.682 6.82818 14.7267 9.061 14.4074C9.7311 14.3116 10.4055 14.273 11.0991 14.273L11.0991 17.9272C11.0991 18.835 12.1968 19.2897 12.8387 18.6477L21.0952 10.3913C21.4866 9.99987 21.494 9.36752 21.1117 8.96709L12.8553 0.317474C12.2205 -0.347546 11.0991 0.101756 11.0991 1.02111V5.10152ZM13.1372 3.56457V5.98535C13.1372 6.49248 12.7643 6.92244 12.2623 6.99416L11.3873 7.11916C8.53492 7.52664 6.05627 9.3864 4.30659 11.9263C3.67585 12.8419 3.16497 13.8103 2.77817 14.7787C3.53615 14.2712 4.27892 13.8504 5.01817 13.5072C7.13059 12.5264 9.09369 12.2349 11.0991 12.2349H12.1182C12.681 12.2349 13.1372 12.6912 13.1372 13.254L13.1372 15.4669L18.95 9.65416L13.1372 3.56457Z" fill="#86878B"/>
</svg>
