<svg width="24" height="18" viewBox="0 0 24 18" fill="none" xmlns="http://www.w3.org/2000/svg">
<path fill-rule="evenodd" clip-rule="evenodd" d="M2.73666 1.82444C2.23285 1.82444 1.82444 2.23285 1.82444 2.73666V14.8996C1.82444 15.4034 2.23285 15.8118 2.73666 15.8118H14.8996C15.4034 15.8118 15.8118 15.4034 15.8118 14.8996V2.73666C15.8118 2.23285 15.4034 1.82444 14.8996 1.82444H2.73666ZM0 2.73666C0 1.22524 1.22524 0 2.73666 0H14.8996C16.411 0 17.6362 1.22524 17.6362 2.73666V7.01284L21.4758 4.18367C22.2789 3.59193 23.4136 4.16532 23.4136 5.16286V12.4734C23.4136 13.4709 22.2789 14.0443 21.4758 13.4526L17.6362 10.6234V14.8996C17.6362 16.411 16.411 17.6362 14.8996 17.6362H2.73666C1.22524 17.6362 0 16.411 0 14.8996V2.73666ZM18.2618 8.81812L21.5892 11.2699V6.36637L18.2618 8.81812Z" fill="#86878B"/>
</svg>
