<svg width="35" height="27" viewBox="0 0 35 27" fill="none" xmlns="http://www.w3.org/2000/svg">
<path d="M28.3139 23.9286V20.7381C28.3139 19.5535 27.7284 18.4174 26.6863 17.5797C24.8649 16.1157 21.4546 15.5153 18.7103 15.0778C17.7088 14.9182 16.6886 14.9029 15.6851 15.0496C12.6748 15.4897 9.57464 16.0839 7.71377 17.5797C6.67164 18.4174 6.08618 19.5535 6.08618 20.7381V23.9286" fill="#CCCCCC"/>
<path d="M17.2 12.7619C20.269 12.7619 22.7569 10.7621 22.7569 8.29522C22.7569 5.82835 20.269 3.82855 17.2 3.82855C14.131 3.82855 11.6431 5.82835 11.6431 8.29522C11.6431 10.7621 14.131 12.7619 17.2 12.7619Z" fill="#CCCCCC"/>
</svg>
