<svg width="35" height="27" viewBox="0 0 35 27" fill="none" xmlns="http://www.w3.org/2000/svg">
<path d="M15.3933 3.00043C20.0291 3.00043 23.7878 6.7922 23.7878 11.4702C23.7878 13.5995 23.009 15.5454 21.7234 17.0336L26.5994 21.9096C27.0193 22.3298 27.0192 23.0109 26.5994 23.4311C26.1791 23.8513 25.4972 23.8513 25.0769 23.4311L20.1179 18.4721C18.7721 19.3985 17.1453 19.9409 15.3933 19.9409C10.7577 19.9406 6.99976 16.148 6.99976 11.4702C6.99982 6.79233 10.7578 3.00065 15.3933 3.00043ZM15.3933 5.1723C11.9464 5.17252 9.15215 7.99182 9.1521 11.4702C9.1521 14.9485 11.9464 17.7688 15.3933 17.769C18.8404 17.769 21.6355 14.9487 21.6355 11.4702C21.6354 7.99168 18.8404 5.1723 15.3933 5.1723Z" fill="#CCCCCC"/>
</svg>
