<svg width="35" height="27" viewBox="0 0 35 27" fill="none" xmlns="http://www.w3.org/2000/svg">
<path d="M24.0799 9.99689C24.0799 8.47378 23.355 7.01307 22.0648 5.93607C20.7745 4.85908 19.0246 4.25403 17.1999 4.25403C15.3752 4.25403 13.6252 4.85908 12.335 5.93607C11.0447 7.01307 10.3199 8.47378 10.3199 9.99689C10.3199 16.6969 6.87988 18.6112 6.87988 18.6112H27.5199C27.5199 18.6112 24.0799 16.6969 24.0799 9.99689Z" stroke="#CCCCCC" stroke-width="2" stroke-linecap="round" stroke-linejoin="round"/>
<path d="M19.1835 22.4398C18.9819 22.7298 18.6926 22.9706 18.3444 23.138C17.9963 23.3054 17.6016 23.3935 17.1998 23.3935C16.798 23.3935 16.4033 23.3054 16.0552 23.138C15.707 22.9706 15.4177 22.7298 15.2161 22.4398" stroke="#CCCCCC" stroke-width="2" stroke-linecap="round" stroke-linejoin="round"/>
</svg>
