<svg width="35" height="27" viewBox="0 0 35 27" fill="none" xmlns="http://www.w3.org/2000/svg">
<path d="M24.8283 10.2968L27.3347 7.33696C28.0122 6.53744 28.5412 5.46514 28.5162 4.94202C28.4907 4.41846 27.9612 3.97756 27.3322 3.95555C26.7038 3.93428 25.418 4.37554 24.4605 4.94122L20.9151 7.03458L11.016 3.08626C9.95809 2.66432 8.56631 2.88275 7.90813 3.57559C7.24995 4.26843 7.45218 5.33248 8.35983 5.95323L16.273 11.3651L10.357 16.8376L7.56634 16.1341C6.4438 15.8503 5.18638 15.8936 4.75921 16.2294C4.3316 16.5656 4.72618 17.3351 5.64042 17.9489L8.17268 19.6486C8.17268 19.6486 8.07742 20.0183 7.9591 20.4745C7.84121 20.9303 8.18733 21.2185 8.73283 21.1177L9.72006 20.9347L11.7545 23.0481C12.49 23.8114 13.4122 24.1413 13.8149 23.7851C14.2171 23.4288 14.2689 22.3801 13.9289 21.4424L13.0859 19.1117L19.6393 14.1722L26.1221 20.7796C26.8651 21.5374 28.14 21.7063 28.9698 21.1563C29.7991 20.6068 30.0617 19.4444 29.5558 18.5606L24.8283 10.2968Z" fill="#CCCCCC"/>
</svg>
