<svg width="19" height="19" viewBox="0 0 19 19" fill="none" xmlns="http://www.w3.org/2000/svg">
<g clip-path="url(#clip0_27_579)">
<path d="M7.19617 7.12498C7.38229 6.59588 7.74966 6.14973 8.23322 5.86554C8.71677 5.58136 9.28529 5.47747 9.8381 5.57229C10.3909 5.66711 10.8923 5.95452 11.2535 6.38361C11.6147 6.81269 11.8124 7.35577 11.8116 7.91665C11.8116 9.49998 9.43658 10.2916 9.43658 10.2916M9.49992 13.4583H9.50783M17.4166 9.49998C17.4166 13.8722 13.8722 17.4166 9.49992 17.4166C5.12766 17.4166 1.58325 13.8722 1.58325 9.49998C1.58325 5.12772 5.12766 1.58331 9.49992 1.58331C13.8722 1.58331 17.4166 5.12772 17.4166 9.49998Z" stroke="#1E1E1E" stroke-width="1.6" stroke-linecap="round" stroke-linejoin="round"/>
</g>
<defs>
<clipPath id="clip0_27_579">
<rect width="19" height="19" fill="white"/>
</clipPath>
</defs>
</svg>
